<svg xmlns="http://www.w3.org/2000/svg" xmlns:xlink="http://www.w3.org/1999/xlink" width="500" zoomAndPan="magnify" viewBox="0 0 375 374.999991" height="500" preserveAspectRatio="xMidYMid meet" version="1.0"><defs><g/><clipPath id="04fc20b602"><path d="M 22.238281 22.238281 L 352.761719 22.238281 L 352.761719 352.761719 L 22.238281 352.761719 Z M 22.238281 22.238281 " clip-rule="nonzero"/></clipPath><clipPath id="ca383609ae"><path d="M 187.5 22.238281 C 96.230469 22.238281 22.238281 96.230469 22.238281 187.5 C 22.238281 278.769531 96.230469 352.761719 187.5 352.761719 C 278.769531 352.761719 352.761719 278.769531 352.761719 187.5 C 352.761719 96.230469 278.769531 22.238281 187.5 22.238281 Z M 187.5 22.238281 " clip-rule="nonzero"/></clipPath><clipPath id="51336ce276"><path d="M 31.128906 31.128906 L 343.871094 31.128906 L 343.871094 343.871094 L 31.128906 343.871094 Z M 31.128906 31.128906 " clip-rule="nonzero"/></clipPath><clipPath id="46642d3ff0"><path d="M 187.5 31.128906 C 101.136719 31.128906 31.128906 101.136719 31.128906 187.5 C 31.128906 273.863281 101.136719 343.871094 187.5 343.871094 C 273.863281 343.871094 343.871094 273.863281 343.871094 187.5 C 343.871094 101.136719 273.863281 31.128906 187.5 31.128906 Z M 187.5 31.128906 " clip-rule="nonzero"/></clipPath><clipPath id="57ded56317"><path d="M 95.835938 95.835938 L 279.164062 95.835938 L 279.164062 279.164062 L 95.835938 279.164062 Z M 95.835938 95.835938 " clip-rule="nonzero"/></clipPath><clipPath id="ecac8262f7"><path d="M 187.5 95.835938 C 136.875 95.835938 95.835938 136.875 95.835938 187.5 C 95.835938 238.125 136.875 279.164062 187.5 279.164062 C 238.125 279.164062 279.164062 238.125 279.164062 187.5 C 279.164062 136.875 238.125 95.835938 187.5 95.835938 Z M 187.5 95.835938 " clip-rule="nonzero"/></clipPath><clipPath id="6213c5be1d"><path d="M 142 119 L 234 119 L 234 259 L 142 259 Z M 142 119 " clip-rule="nonzero"/></clipPath><clipPath id="5b24a9db6b"><path d="M 135.953125 121.960938 L 222.375 111.941406 L 238.699219 252.75 L 152.277344 262.765625 Z M 135.953125 121.960938 " clip-rule="nonzero"/></clipPath><clipPath id="18b29460c8"><path d="M 135.953125 121.960938 L 222.375 111.941406 L 238.699219 252.75 L 152.277344 262.765625 Z M 135.953125 121.960938 " clip-rule="nonzero"/></clipPath><clipPath id="8a22fed4ff"><path d="M 147 124 L 229 124 L 229 254 L 147 254 Z M 147 124 " clip-rule="nonzero"/></clipPath><clipPath id="7f574379eb"><path d="M 135.953125 121.960938 L 222.375 111.941406 L 238.699219 252.75 L 152.277344 262.765625 Z M 135.953125 121.960938 " clip-rule="nonzero"/></clipPath><clipPath id="465216f4b9"><path d="M 135.953125 121.960938 L 222.375 111.941406 L 238.699219 252.75 L 152.277344 262.765625 Z M 135.953125 121.960938 " clip-rule="nonzero"/></clipPath><clipPath id="2aa931f760"><path d="M 157 183 L 227 183 L 227 253 L 157 253 Z M 157 183 " clip-rule="nonzero"/></clipPath><clipPath id="1bcd87684a"><path d="M 135.953125 121.960938 L 222.375 111.941406 L 238.699219 252.75 L 152.277344 262.765625 Z M 135.953125 121.960938 " clip-rule="nonzero"/></clipPath><clipPath id="b795f71f59"><path d="M 135.953125 121.960938 L 222.375 111.941406 L 238.699219 252.75 L 152.277344 262.765625 Z M 135.953125 121.960938 " clip-rule="nonzero"/></clipPath><clipPath id="163a74f688"><path d="M 148 154 L 223 154 L 223 185 L 148 185 Z M 148 154 " clip-rule="nonzero"/></clipPath><clipPath id="f43634a499"><path d="M 135.953125 121.960938 L 222.375 111.941406 L 238.699219 252.75 L 152.277344 262.765625 Z M 135.953125 121.960938 " clip-rule="nonzero"/></clipPath><clipPath id="8edc221d0c"><path d="M 135.953125 121.960938 L 222.375 111.941406 L 238.699219 252.75 L 152.277344 262.765625 Z M 135.953125 121.960938 " clip-rule="nonzero"/></clipPath><clipPath id="1c78121b97"><path d="M 48.632812 173.464844 L 76.699219 173.464844 L 76.699219 201.535156 L 48.632812 201.535156 Z M 48.632812 173.464844 " clip-rule="nonzero"/></clipPath><clipPath id="07aa0e93ad"><path d="M 62.667969 173.464844 C 54.917969 173.464844 48.632812 179.75 48.632812 187.5 C 48.632812 195.25 54.917969 201.535156 62.667969 201.535156 C 70.417969 201.535156 76.699219 195.25 76.699219 187.5 C 76.699219 179.75 70.417969 173.464844 62.667969 173.464844 Z M 62.667969 173.464844 " clip-rule="nonzero"/></clipPath><clipPath id="0fb0fafffd"><path d="M 298.300781 173.464844 L 326.367188 173.464844 L 326.367188 201.535156 L 298.300781 201.535156 Z M 298.300781 173.464844 " clip-rule="nonzero"/></clipPath><clipPath id="d3e5876dbc"><path d="M 312.332031 173.464844 C 304.582031 173.464844 298.300781 179.75 298.300781 187.5 C 298.300781 195.25 304.582031 201.535156 312.332031 201.535156 C 320.082031 201.535156 326.367188 195.25 326.367188 187.5 C 326.367188 179.75 320.082031 173.464844 312.332031 173.464844 Z M 312.332031 173.464844 " clip-rule="nonzero"/></clipPath></defs><rect x="-37.5" width="450" fill="#ffffff" y="-37.499999" height="449.999989" fill-opacity="1"/><rect x="-37.5" width="450" fill="#ffffff" y="-37.499999" height="449.999989" fill-opacity="1"/><g clip-path="url(#04fc20b602)"><g clip-path="url(#ca383609ae)"><path fill="#efdeb6" d="M 22.238281 22.238281 L 352.761719 22.238281 L 352.761719 352.761719 L 22.238281 352.761719 Z M 22.238281 22.238281 " fill-opacity="1" fill-rule="nonzero"/></g></g><g clip-path="url(#51336ce276)"><g clip-path="url(#46642d3ff0)"><path fill="#7d552e" d="M 31.128906 31.128906 L 343.871094 31.128906 L 343.871094 343.871094 L 31.128906 343.871094 Z M 31.128906 31.128906 " fill-opacity="1" fill-rule="nonzero"/></g></g><g fill="#ffffff" fill-opacity="1"><g transform="translate(83.806068, 148.953522)"><g><path d="M 1.171875 -2.078125 L -29.15625 -19.25 L -20.8125 -33.96875 C -19.019531 -37.132812 -17.039062 -39.179688 -14.875 -40.109375 C -12.707031 -41.035156 -10.320312 -40.765625 -7.71875 -39.296875 C -5.851562 -38.234375 -4.6875 -36.941406 -4.21875 -35.421875 C -3.757812 -33.910156 -3.671875 -32.410156 -3.953125 -30.921875 L -3.875 -30.875 C -3.082031 -31.851562 -2.148438 -32.628906 -1.078125 -33.203125 C -0.00390625 -33.773438 1.171875 -34.046875 2.453125 -34.015625 C 3.742188 -33.992188 5.15625 -33.546875 6.6875 -32.671875 C 8.84375 -31.453125 10.332031 -30.039062 11.15625 -28.4375 C 11.976562 -26.84375 12.242188 -25.097656 11.953125 -23.203125 C 11.671875 -21.304688 10.9375 -19.3125 9.75 -17.21875 Z M -12.5625 -19.9375 L -9.578125 -25.203125 C -8.972656 -26.285156 -8.648438 -27.300781 -8.609375 -28.25 C -8.578125 -29.195312 -9.191406 -30.023438 -10.453125 -30.734375 C -11.691406 -31.441406 -12.707031 -31.535156 -13.5 -31.015625 C -14.300781 -30.492188 -15.003906 -29.691406 -15.609375 -28.609375 L -18.59375 -23.34375 Z M -0.734375 -13.234375 L 2.359375 -18.71875 C 3.265625 -20.300781 3.695312 -21.632812 3.65625 -22.71875 C 3.613281 -23.8125 2.882812 -24.757812 1.46875 -25.5625 C 0.0507812 -26.363281 -1.117188 -26.492188 -2.046875 -25.953125 C -2.984375 -25.421875 -3.90625 -24.363281 -4.8125 -22.78125 L -7.90625 -17.296875 Z M -0.734375 -13.234375 "/></g></g></g><g fill="#ffffff" fill-opacity="1"><g transform="translate(101.651057, 117.871544)"><g><path d="M 14.296875 -11.34375 C 11.515625 -8.9375 8.628906 -7.484375 5.640625 -6.984375 C 2.648438 -6.484375 -0.242188 -6.832031 -3.046875 -8.03125 C -5.847656 -9.238281 -8.394531 -11.171875 -10.6875 -13.828125 C -12.988281 -16.484375 -14.53125 -19.273438 -15.3125 -22.203125 C -16.09375 -25.140625 -16.023438 -28.050781 -15.109375 -30.9375 C -14.191406 -33.820312 -12.34375 -36.46875 -9.5625 -38.875 C -6.789062 -41.28125 -3.914062 -42.726562 -0.9375 -43.21875 C 2.039062 -43.707031 4.929688 -43.359375 7.734375 -42.171875 C 10.535156 -40.992188 13.085938 -39.078125 15.390625 -36.421875 C 17.679688 -33.765625 19.21875 -30.957031 20 -28 C 20.78125 -25.050781 20.71875 -22.140625 19.8125 -19.265625 C 18.90625 -16.390625 17.066406 -13.75 14.296875 -11.34375 Z M 9.59375 -16.765625 C 11.1875 -18.148438 12.125 -19.617188 12.40625 -21.171875 C 12.695312 -22.734375 12.488281 -24.328125 11.78125 -25.953125 C 11.082031 -27.585938 10.078125 -29.164062 8.765625 -30.6875 C 7.441406 -32.207031 6.023438 -33.421875 4.515625 -34.328125 C 3.015625 -35.242188 1.476562 -35.671875 -0.09375 -35.609375 C -1.675781 -35.554688 -3.265625 -34.835938 -4.859375 -33.453125 C -6.453125 -32.066406 -7.398438 -30.585938 -7.703125 -29.015625 C -8.003906 -27.453125 -7.800781 -25.867188 -7.09375 -24.265625 C -6.382812 -22.660156 -5.367188 -21.097656 -4.046875 -19.578125 C -2.734375 -18.054688 -1.328125 -16.828125 0.171875 -15.890625 C 1.671875 -14.953125 3.21875 -14.515625 4.8125 -14.578125 C 6.40625 -14.648438 8 -15.378906 9.59375 -16.765625 Z M 9.59375 -16.765625 "/></g></g></g><g fill="#ffffff" fill-opacity="1"><g transform="translate(132.041811, 92.654675)"><g><path d="M 2.234375 -0.875 L -10.453125 -33.34375 L 5.296875 -39.5 C 8.679688 -40.820312 11.503906 -41.15625 13.765625 -40.5 C 16.035156 -39.851562 17.710938 -38.132812 18.796875 -35.34375 C 19.578125 -33.351562 19.671875 -31.625 19.078125 -30.15625 C 18.484375 -28.6875 17.601562 -27.457031 16.4375 -26.46875 L 16.46875 -26.375 C 17.695312 -26.65625 18.910156 -26.675781 20.109375 -26.4375 C 21.304688 -26.195312 22.394531 -25.660156 23.375 -24.828125 C 24.363281 -23.992188 25.175781 -22.757812 25.8125 -21.125 C 26.71875 -18.820312 26.984375 -16.785156 26.609375 -15.015625 C 26.234375 -13.253906 25.335938 -11.726562 23.921875 -10.4375 C 22.503906 -9.15625 20.675781 -8.078125 18.4375 -7.203125 Z M 2.828125 -23.40625 L 8.453125 -25.609375 C 9.609375 -26.054688 10.5 -26.632812 11.125 -27.34375 C 11.757812 -28.0625 11.8125 -29.09375 11.28125 -30.4375 C 10.769531 -31.757812 10.039062 -32.46875 9.09375 -32.5625 C 8.144531 -32.664062 7.09375 -32.492188 5.9375 -32.046875 L 0.3125 -29.84375 Z M 7.78125 -10.75 L 13.640625 -13.046875 C 15.335938 -13.703125 16.515625 -14.460938 17.171875 -15.328125 C 17.828125 -16.191406 17.859375 -17.378906 17.265625 -18.890625 C 16.679688 -20.410156 15.851562 -21.253906 14.78125 -21.421875 C 13.71875 -21.597656 12.335938 -21.359375 10.640625 -20.703125 L 4.78125 -18.40625 Z M 7.78125 -10.75 "/></g></g></g><g fill="#ffffff" fill-opacity="1"><g transform="translate(165.674165, 79.973822)"><g><path d="M -0.046875 0 L 11.140625 -35.34375 L 19.921875 -35.703125 L 33.90625 -1.390625 L 25.140625 -1.03125 L 22.59375 -8.203125 L 10.65625 -7.71875 L 8.71875 -0.359375 Z M 12.390625 -14.453125 L 20.390625 -14.78125 L 15.90625 -27.5 L 15.8125 -27.484375 Z M 12.390625 -14.453125 "/></g></g></g><g fill="#ffffff" fill-opacity="1"><g transform="translate(204.219962, 80.448485)"><g/></g></g><g fill="#ffffff" fill-opacity="1"><g transform="translate(217.430716, 82.351384)"><g><path d="M 10.03125 4.4375 L 21.234375 -20.875 L 11.953125 -24.984375 L 14.859375 -31.546875 L 41.390625 -19.796875 L 38.484375 -13.234375 L 29.265625 -17.3125 L 18.0625 8 Z M 10.03125 4.4375 "/></g></g></g><g fill="#ffffff" fill-opacity="1"><g transform="translate(248.468821, 96.696264)"><g><path d="M 1.78125 1.59375 L 24.953125 -24.453125 L 44.703125 -6.890625 L 39.9375 -1.53125 L 26.734375 -13.265625 L 22.625 -8.640625 L 34 1.46875 L 29.234375 6.828125 L 17.859375 -3.28125 L 13.09375 2.0625 L 26.515625 13.984375 L 21.75 19.34375 Z M 1.78125 1.59375 "/></g></g></g><g fill="#ffffff" fill-opacity="1"><g transform="translate(273.679415, 119.498411)"><g><path d="M -0.015625 -0.046875 L 36.5 -6.421875 L 40.875 1.203125 L 16.875 29.453125 L 12.5 21.828125 L 17.6875 16.265625 L 11.75 5.90625 L 4.328125 7.5625 Z M 18.546875 4.328125 L 22.515625 11.265625 L 31.71875 1.4375 L 31.671875 1.359375 Z M 18.546875 4.328125 "/></g></g></g><g clip-path="url(#57ded56317)"><g clip-path="url(#ecac8262f7)"><path fill="#efdeb6" d="M 95.835938 95.835938 L 279.164062 95.835938 L 279.164062 279.164062 L 95.835938 279.164062 Z M 95.835938 95.835938 " fill-opacity="1" fill-rule="nonzero"/></g></g><g clip-path="url(#6213c5be1d)"><g clip-path="url(#5b24a9db6b)"><g clip-path="url(#18b29460c8)"><path fill="#ffffff" d="M 228.382812 163.054688 L 226.558594 155.515625 C 226.367188 154.726562 226.046875 153.980469 225.605469 153.292969 C 224.863281 152.125 223.808594 151.167969 222.464844 150.441406 C 222.246094 150.316406 222.042969 150.21875 221.871094 150.136719 C 221.390625 149.910156 220.859375 149.707031 220.292969 149.527344 C 219.96875 149.421875 219.609375 149.320312 219.226562 149.222656 C 218.21875 148.972656 217.101562 148.78125 215.917969 148.660156 C 215.390625 148.601562 214.816406 148.554688 214.21875 148.515625 L 214.023438 148.507812 C 213.652344 148.488281 213.277344 148.472656 212.886719 148.457031 C 211.832031 148.425781 210.683594 148.421875 209.46875 148.453125 C 209.035156 148.464844 208.59375 148.480469 208.144531 148.5 L 208.113281 148.503906 C 206.722656 148.558594 205.234375 148.664062 203.6875 148.808594 L 203.613281 148.816406 C 203.113281 148.863281 202.597656 148.914062 202.070312 148.96875 L 202.03125 148.972656 C 201.5 149.03125 200.960938 149.089844 200.414062 149.15625 C 199.859375 149.222656 199.300781 149.289062 198.738281 149.367188 C 198.175781 149.441406 197.601562 149.523438 197.058594 149.601562 C 196.472656 149.683594 195.886719 149.777344 195.292969 149.871094 C 193.25 150.191406 191.128906 150.566406 188.988281 150.992188 L 188.871094 151.015625 C 186.390625 151.503906 183.835938 152.066406 181.277344 152.683594 C 179.339844 153.152344 177.414062 153.648438 175.527344 154.167969 L 163.785156 121.277344 C 163.539062 121.046875 163.253906 120.816406 162.933594 120.605469 L 161.019531 119.757812 C 160.191406 119.539062 159.21875 119.433594 158.070312 119.507812 C 156.304688 119.625 154.550781 120.105469 153.386719 120.492188 C 152.617188 120.746094 151.113281 121.296875 149.703125 122.101562 C 148.429688 122.828125 147.519531 123.617188 146.875 124.414062 L 145.796875 126.273438 C 145.660156 126.644531 145.570312 127.003906 145.511719 127.347656 L 155.933594 161.019531 C 155.777344 161.09375 155.621094 161.164062 155.46875 161.234375 C 154.320312 161.761719 153.226562 162.296875 152.226562 162.824219 C 151.886719 163.003906 151.554688 163.183594 151.234375 163.359375 L 151.207031 163.375 C 150.847656 163.570312 150.496094 163.769531 150.140625 163.980469 C 149.601562 164.300781 149.09375 164.617188 148.644531 164.914062 C 147.890625 165.402344 147.195312 165.90625 146.570312 166.410156 C 146.347656 166.589844 146.140625 166.765625 145.941406 166.9375 C 145.648438 167.195312 145.378906 167.445312 145.136719 167.6875 C 144.710938 168.113281 144.328125 168.542969 144 168.972656 C 143.878906 169.125 143.753906 169.292969 143.628906 169.484375 C 142.753906 170.757812 142.25 172.097656 142.125 173.46875 C 142.046875 174.285156 142.101562 175.101562 142.292969 175.890625 L 144.117188 183.425781 C 144.519531 185.09375 145.703125 187.367188 149.027344 188.890625 L 156.675781 209.015625 C 157.128906 210.363281 158.085938 212.027344 160.101562 213.359375 L 173.613281 251.382812 C 175.472656 257.277344 182.703125 259.539062 195.105469 258.101562 C 198.589844 257.695312 202.453125 256.996094 206.273438 256.070312 C 217.113281 253.449219 234.972656 247.496094 233.183594 236.984375 L 227.832031 196.972656 C 227.835938 196.964844 227.84375 196.953125 227.851562 196.941406 C 228.777344 195.46875 229.183594 193.730469 228.957031 192.003906 C 228.933594 191.816406 226.519531 170.265625 226.519531 170.265625 C 228.777344 167.324219 228.785156 164.734375 228.382812 163.054688 Z M 228.382812 163.054688 " fill-opacity="1" fill-rule="nonzero"/></g></g></g><g clip-path="url(#8a22fed4ff)"><g clip-path="url(#7f574379eb)"><g clip-path="url(#465216f4b9)"><path fill="#7d552e" d="M 223.542969 164.226562 L 221.71875 156.691406 C 221.660156 156.4375 221.554688 156.195312 221.410156 155.972656 C 221.125 155.515625 220.660156 155.121094 220.058594 154.800781 C 219.960938 154.742188 219.855469 154.691406 219.75 154.640625 C 219.460938 154.507812 219.128906 154.378906 218.769531 154.265625 C 218.546875 154.195312 218.296875 154.121094 218.027344 154.054688 C 217.246094 153.859375 216.355469 153.710938 215.386719 153.609375 C 214.910156 153.558594 214.386719 153.515625 213.839844 153.480469 C 213.835938 153.480469 213.835938 153.480469 213.832031 153.480469 C 213.472656 153.464844 213.109375 153.445312 212.726562 153.433594 C 211.757812 153.402344 210.707031 153.402344 209.597656 153.433594 C 209.195312 153.441406 208.785156 153.457031 208.363281 153.476562 C 208.359375 153.476562 208.351562 153.476562 208.347656 153.476562 C 207.019531 153.53125 205.59375 153.628906 204.101562 153.769531 C 204.097656 153.769531 204.097656 153.769531 204.09375 153.769531 C 203.597656 153.820312 203.089844 153.867188 202.574219 153.921875 C 202.058594 153.976562 201.539062 154.035156 201.011719 154.097656 C 200.480469 154.164062 199.941406 154.226562 199.402344 154.304688 C 198.859375 154.375 198.308594 154.449219 197.757812 154.53125 C 197.195312 154.613281 196.632812 154.699219 196.066406 154.789062 C 194.082031 155.101562 192.023438 155.464844 189.949219 155.875 C 189.933594 155.878906 189.914062 155.882812 189.898438 155.886719 C 189.875 155.890625 189.855469 155.894531 189.835938 155.898438 C 187.421875 156.375 184.9375 156.921875 182.449219 157.523438 C 179.957031 158.125 177.488281 158.777344 175.109375 159.460938 C 175.097656 159.464844 175.085938 159.464844 175.074219 159.46875 C 175.0625 159.472656 175.046875 159.476562 175.035156 159.480469 C 174.117188 159.742188 173.210938 160.011719 172.3125 160.289062 L 169.066406 150.507812 C 169.039062 150.421875 160.648438 125.316406 160.648438 125.316406 C 160.644531 125.300781 160.636719 125.285156 160.628906 125.269531 C 160.273438 124.355469 158.863281 124.445312 158.394531 124.476562 C 157.421875 124.539062 156.203125 124.804688 154.957031 125.21875 C 154.105469 125.5 149.886719 126.996094 150.453125 128.703125 C 150.453125 128.703125 150.453125 128.703125 150.453125 128.707031 L 162.109375 163.820312 C 161.894531 163.902344 161.6875 163.988281 161.480469 164.070312 C 160.078125 164.632812 158.75 165.203125 157.546875 165.757812 C 156.472656 166.25 155.46875 166.746094 154.546875 167.230469 C 154.238281 167.394531 153.9375 167.554688 153.648438 167.714844 C 153.644531 167.71875 153.636719 167.722656 153.632812 167.726562 C 153.300781 167.90625 152.984375 168.085938 152.679688 168.265625 C 152.207031 168.546875 151.765625 168.820312 151.363281 169.085938 C 150.75 169.484375 150.191406 169.890625 149.691406 170.289062 C 149.527344 170.421875 149.367188 170.554688 149.214844 170.6875 C 149.003906 170.871094 148.816406 171.050781 148.65625 171.210938 C 148.382812 171.484375 148.144531 171.746094 147.949219 172 C 147.878906 172.09375 147.808594 172.1875 147.761719 172.257812 C 147.359375 172.839844 147.128906 173.40625 147.082031 173.933594 C 147.054688 174.203125 147.074219 174.46875 147.132812 174.71875 L 148.957031 182.257812 C 149.171875 183.152344 149.980469 183.898438 151.359375 184.476562 C 151.804688 184.664062 152.316406 184.835938 152.875 184.988281 L 161.375 207.359375 C 161.730469 208.507812 162.726562 209.3125 164.140625 209.859375 L 178.34375 249.816406 C 179.414062 253.421875 186.269531 254.113281 194.53125 253.15625 C 197.917969 252.761719 201.542969 252.089844 205.101562 251.230469 C 217.339844 248.273438 229.238281 242.960938 228.261719 237.75 L 222.640625 195.707031 C 223.171875 195.113281 223.5625 194.507812 223.785156 193.898438 C 223.8125 193.863281 223.839844 193.828125 223.867188 193.792969 L 223.847656 193.726562 C 224.003906 193.230469 224.050781 192.730469 223.960938 192.230469 L 221.320312 168.585938 C 221.753906 168.179688 222.132812 167.78125 222.4375 167.402344 C 223.394531 166.222656 223.765625 165.152344 223.542969 164.226562 Z M 179.875 188.519531 C 179.816406 188.515625 179.753906 188.515625 179.695312 188.511719 C 179.464844 188.507812 179.242188 188.503906 179.023438 188.5 C 178.976562 188.5 178.929688 188.5 178.882812 188.5 C 178.710938 188.5 178.542969 188.496094 178.375 188.5 C 178.300781 188.5 178.226562 188.5 178.152344 188.5 C 178.015625 188.5 177.878906 188.503906 177.746094 188.507812 C 177.667969 188.507812 177.589844 188.511719 177.515625 188.511719 C 177.386719 188.515625 177.257812 188.519531 177.128906 188.527344 C 177.058594 188.53125 176.984375 188.53125 176.910156 188.535156 C 176.777344 188.542969 176.644531 188.550781 176.515625 188.558594 C 176.453125 188.5625 176.394531 188.566406 176.332031 188.570312 C 176.144531 188.582031 175.960938 188.597656 175.777344 188.613281 C 175.101562 188.671875 174.421875 188.742188 173.753906 188.820312 C 173.714844 188.824219 173.683594 188.828125 173.644531 188.832031 C 173.484375 188.851562 173.324219 188.875 173.160156 188.894531 C 172.753906 188.945312 172.34375 188.996094 171.941406 189.050781 L 170.851562 185.773438 C 172.445312 185.65625 174.074219 185.5 175.71875 185.308594 C 176.832031 185.179688 177.949219 185.035156 179.070312 184.875 L 180.285156 188.53125 C 180.144531 188.527344 180.011719 188.523438 179.875 188.519531 Z M 155.375 126.476562 C 157.226562 125.863281 158.582031 125.738281 159.183594 125.804688 C 158.742188 126.210938 157.582031 126.925781 155.726562 127.539062 C 153.871094 128.15625 152.515625 128.277344 151.914062 128.214844 C 152.359375 127.804688 153.519531 127.09375 155.375 126.476562 Z M 152.132812 129.554688 C 152.449219 129.5625 152.785156 129.542969 153.128906 129.503906 C 154.394531 129.359375 155.710938 128.945312 156.144531 128.800781 C 157.390625 128.386719 158.527344 127.867188 159.34375 127.339844 C 159.453125 127.269531 159.625 127.15625 159.8125 127.011719 L 172.980469 166.683594 C 172.746094 167.03125 171.527344 167.882812 169.351562 168.605469 C 167.183594 169.324219 165.695312 169.371094 165.300781 169.234375 Z M 154.429688 185.351562 C 158.175781 186.078125 163.535156 186.234375 169.484375 185.867188 L 170.609375 189.253906 C 163.453125 190.398438 158.960938 192.253906 157.339844 193.011719 Z M 221.804688 184.886719 C 220.609375 184.039062 218.601562 182.945312 215.71875 182.476562 C 211.285156 181.75 203.847656 182.4375 193.527344 189.785156 C 192.289062 189.65625 191.0625 189.519531 189.855469 189.382812 C 186.980469 189.0625 184.265625 188.761719 181.710938 188.605469 L 180.402344 184.671875 C 183.46875 184.199219 186.53125 183.605469 189.464844 182.894531 C 202.964844 179.632812 214.613281 174.0625 220.101562 169.644531 Z M 221.804688 184.886719 " fill-opacity="1" fill-rule="nonzero"/></g></g></g><g clip-path="url(#2aa931f760)"><g clip-path="url(#1bcd87684a)"><g clip-path="url(#b795f71f59)"><path fill="#fcc28a" d="M 195.566406 189.988281 C 204.796875 183.765625 211.414062 183.144531 215.40625 183.769531 C 218.574219 184.265625 220.609375 185.605469 221.546875 186.363281 C 213.730469 190.988281 204.191406 190.796875 195.566406 189.988281 Z M 222.105469 187.574219 L 222.644531 192.398438 C 222.644531 192.414062 222.648438 192.429688 222.652344 192.445312 C 223.171875 195.277344 216.484375 199.363281 205.199219 203.105469 L 205.617188 204.367188 C 210.546875 202.730469 217.683594 199.996094 221.453125 196.847656 L 226.945312 237.945312 C 226.949219 237.957031 226.949219 237.96875 226.953125 237.984375 C 227.648438 241.578125 218.121094 246.71875 204.789062 249.941406 C 191.457031 253.164062 180.632812 252.941406 179.609375 249.425781 C 179.609375 249.414062 179.601562 249.402344 179.597656 249.390625 L 165.714844 210.324219 C 169.296875 211.132812 174.460938 210.878906 179.117188 210.335938 C 179.347656 210.3125 179.578125 210.285156 179.804688 210.253906 L 179.644531 208.9375 C 169.726562 210.160156 163.378906 209.414062 162.636719 206.953125 C 162.632812 206.9375 162.628906 206.921875 162.621094 206.910156 L 157.816406 194.257812 C 159.320312 193.554688 164.058594 191.566406 171.585938 190.445312 C 172.988281 190.234375 174.4375 190.0625 175.894531 189.933594 C 176.523438 189.878906 177.191406 189.84375 177.902344 189.832031 C 178.472656 189.820312 179.066406 189.824219 179.699219 189.839844 C 179.730469 189.84375 179.761719 189.84375 179.792969 189.84375 C 180.242188 189.855469 180.703125 189.875 181.183594 189.902344 C 183.832031 190.042969 186.6875 190.363281 189.707031 190.703125 C 191 190.847656 192.3125 190.996094 193.644531 191.132812 C 198.816406 191.664062 204.394531 192.078125 209.824219 191.449219 C 214.097656 190.953125 218.28125 189.808594 222.105469 187.574219 Z M 186.960938 207.789062 L 187.207031 209.09375 C 191.242188 208.335938 195.503906 207.339844 199.53125 206.21875 L 199.175781 204.9375 C 195.183594 206.050781 190.960938 207.039062 186.960938 207.789062 Z M 180.246094 229.179688 C 181.726562 228.820312 182.632812 227.335938 182.277344 225.855469 C 181.917969 224.378906 180.433594 223.472656 178.953125 223.828125 C 177.476562 224.1875 176.570312 225.671875 176.925781 227.148438 C 177.285156 228.628906 178.769531 229.535156 180.246094 229.179688 Z M 188.214844 244.730469 C 187.859375 243.25 186.371094 242.34375 184.894531 242.699219 C 183.417969 243.058594 182.511719 244.542969 182.867188 246.023438 C 183.222656 247.5 184.710938 248.40625 186.1875 248.050781 C 187.664062 247.691406 188.574219 246.207031 188.214844 244.730469 Z M 188.464844 234.039062 C 188.105469 232.5625 186.621094 231.65625 185.140625 232.011719 C 183.664062 232.371094 182.757812 233.855469 183.113281 235.332031 C 183.472656 236.8125 184.957031 237.71875 186.433594 237.363281 C 187.914062 237.003906 188.820312 235.519531 188.464844 234.039062 Z M 192.523438 233.335938 C 194 232.976562 194.910156 231.488281 194.550781 230.011719 C 194.195312 228.535156 192.707031 227.628906 191.230469 227.984375 C 189.753906 228.34375 188.847656 229.828125 189.203125 231.304688 C 189.558594 232.78125 191.046875 233.691406 192.523438 233.335938 Z M 198.457031 238.019531 C 198.101562 236.542969 196.613281 235.632812 195.136719 235.992188 C 193.660156 236.347656 192.753906 237.835938 193.109375 239.3125 C 193.464844 240.789062 194.953125 241.699219 196.429688 241.339844 C 197.90625 240.984375 198.816406 239.496094 198.457031 238.019531 Z M 199.789062 230.789062 C 200.148438 232.269531 201.632812 233.175781 203.109375 232.820312 C 204.589844 232.460938 205.496094 230.976562 205.140625 229.496094 C 204.78125 228.019531 203.296875 227.113281 201.820312 227.46875 C 200.339844 227.828125 199.433594 229.3125 199.789062 230.789062 Z M 207.039062 241.605469 C 206.683594 240.128906 205.195312 239.222656 203.71875 239.578125 C 202.242188 239.9375 201.335938 241.421875 201.691406 242.898438 C 202.046875 244.375 203.535156 245.285156 205.011719 244.929688 C 206.488281 244.570312 207.398438 243.085938 207.039062 241.605469 Z M 214.957031 219.417969 C 215.316406 220.894531 216.800781 221.804688 218.277344 221.445312 C 219.753906 221.089844 220.664062 219.601562 220.308594 218.125 C 219.949219 216.648438 218.460938 215.742188 216.984375 216.097656 C 215.507812 216.453125 214.601562 217.941406 214.957031 219.417969 Z M 215.480469 236.734375 C 215.835938 238.214844 217.324219 239.121094 218.800781 238.765625 C 220.277344 238.40625 221.1875 236.921875 220.828125 235.441406 C 220.472656 233.964844 218.984375 233.058594 217.507812 233.414062 C 216.03125 233.773438 215.125 235.257812 215.480469 236.734375 Z M 209.0625 230.570312 C 209.421875 232.050781 210.90625 232.957031 212.382812 232.601562 C 213.859375 232.242188 214.769531 230.757812 214.414062 229.28125 C 214.054688 227.800781 212.570312 226.894531 211.089844 227.25 C 209.613281 227.609375 208.707031 229.09375 209.0625 230.570312 Z M 207.921875 232.902344 C 206.441406 233.257812 205.535156 234.746094 205.890625 236.222656 C 206.25 237.699219 207.734375 238.609375 209.210938 238.25 C 210.691406 237.894531 211.597656 236.40625 211.242188 234.929688 C 210.882812 233.453125 209.398438 232.542969 207.921875 232.902344 Z M 223.847656 193.722656 C 223.828125 193.78125 223.808594 193.839844 223.785156 193.898438 C 223.8125 193.863281 223.839844 193.828125 223.863281 193.792969 Z M 223.847656 193.722656 " fill-opacity="1" fill-rule="nonzero"/></g></g></g><g clip-path="url(#163a74f688)"><g clip-path="url(#f43634a499)"><g clip-path="url(#8edc221d0c)"><path fill="#efdeb6" d="M 222.25 164.539062 L 220.984375 159.296875 C 219.152344 161.765625 214.492188 164.230469 210.613281 165.964844 L 210.070312 164.753906 C 216.003906 162.097656 219.761719 159.523438 220.378906 157.683594 C 220.460938 157.433594 220.480469 157.210938 220.429688 157.003906 C 220.402344 156.890625 220.359375 156.789062 220.289062 156.683594 C 220.125 156.425781 219.832031 156.183594 219.414062 155.960938 C 219.328125 155.910156 219.253906 155.875 219.183594 155.84375 C 218.949219 155.734375 218.675781 155.628906 218.363281 155.53125 C 218.167969 155.464844 217.945312 155.402344 217.707031 155.34375 C 216.984375 155.164062 216.15625 155.023438 215.246094 154.929688 C 214.789062 154.878906 214.289062 154.839844 213.757812 154.808594 C 213.417969 154.789062 213.058594 154.773438 212.6875 154.761719 C 211.777344 154.730469 210.792969 154.730469 209.757812 154.757812 C 209.320312 154.765625 208.878906 154.78125 208.421875 154.800781 C 207.117188 154.859375 205.699219 154.957031 204.214844 155.09375 C 204.210938 155.09375 204.203125 155.09375 204.199219 155.09375 C 203.726562 155.136719 203.25 155.183594 202.765625 155.238281 C 202.746094 155.238281 202.730469 155.238281 202.710938 155.242188 C 202.707031 155.242188 202.707031 155.242188 202.703125 155.242188 C 202.199219 155.296875 201.6875 155.355469 201.167969 155.417969 C 200.644531 155.480469 200.113281 155.550781 199.574219 155.621094 C 199.550781 155.625 199.523438 155.625 199.5 155.628906 C 199.007812 155.695312 198.507812 155.765625 198.007812 155.835938 C 197.984375 155.839844 197.964844 155.84375 197.941406 155.847656 C 197.386719 155.925781 196.832031 156.011719 196.269531 156.101562 C 194.3125 156.410156 192.277344 156.773438 190.21875 157.175781 C 190.199219 157.179688 190.175781 157.183594 190.15625 157.1875 C 190.128906 157.195312 190.097656 157.199219 190.070312 157.207031 C 187.652344 157.6875 185.195312 158.230469 182.761719 158.816406 C 180.304688 159.410156 177.839844 160.058594 175.441406 160.746094 C 175.441406 160.746094 175.4375 160.746094 175.4375 160.746094 C 174.511719 161.015625 173.589844 161.289062 172.679688 161.566406 L 174.277344 166.382812 C 174.597656 167.347656 173.375 168.140625 172.972656 168.402344 C 172.15625 168.933594 171.019531 169.453125 169.773438 169.863281 C 168.707031 170.21875 167.660156 170.460938 166.769531 170.566406 C 166.621094 170.582031 166.476562 170.597656 166.335938 170.605469 C 165.859375 170.636719 164.402344 170.734375 164.082031 169.765625 L 162.527344 165.085938 C 162.34375 165.160156 162.15625 165.230469 161.976562 165.304688 C 161.96875 165.308594 161.957031 165.3125 161.949219 165.316406 C 160.597656 165.859375 159.320312 166.40625 158.152344 166.941406 C 158.136719 166.949219 158.121094 166.957031 158.101562 166.964844 C 157.101562 167.425781 156.164062 167.882812 155.296875 168.335938 C 154.953125 168.515625 154.613281 168.699219 154.292969 168.875 C 153.96875 169.058594 153.65625 169.234375 153.351562 169.410156 C 152.898438 169.679688 152.476562 169.945312 152.09375 170.195312 C 151.324219 170.699219 150.648438 171.199219 150.089844 171.6875 C 149.902344 171.851562 149.738281 172.007812 149.59375 172.152344 C 149.355469 172.386719 149.160156 172.605469 149.003906 172.808594 C 148.953125 172.871094 148.90625 172.933594 148.867188 172.996094 C 148.582031 173.40625 148.429688 173.753906 148.402344 174.054688 C 148.390625 174.1875 148.398438 174.296875 148.425781 174.40625 C 148.472656 174.617188 148.589844 174.804688 148.78125 174.992188 C 149.460938 175.652344 151.609375 176.75 158.363281 176.667969 L 158.378906 177.996094 C 153.960938 178.050781 150.8125 177.617188 148.980469 176.707031 L 150.246094 181.945312 C 150.355469 182.394531 150.933594 182.859375 151.871094 183.253906 C 157.234375 185.511719 173.496094 185.390625 189.15625 181.605469 C 204.585938 177.875 217.910156 170.894531 221.402344 166.570312 C 222.078125 165.734375 222.371094 165.035156 222.25 164.539062 Z M 191.402344 172.605469 L 191.050781 171.324219 C 195.6875 170.066406 200.050781 168.679688 204.019531 167.210938 L 204.484375 168.453125 C 200.476562 169.9375 196.074219 171.335938 191.402344 172.605469 Z M 191.402344 172.605469 " fill-opacity="1" fill-rule="nonzero"/></g></g></g><g clip-path="url(#1c78121b97)"><g clip-path="url(#07aa0e93ad)"><path fill="#ffffff" d="M 48.632812 173.464844 L 76.699219 173.464844 L 76.699219 201.535156 L 48.632812 201.535156 Z M 48.632812 173.464844 " fill-opacity="1" fill-rule="nonzero"/></g></g><path fill="#ffffff" d="M 25.472656 236.464844 C 25.472656 236.765625 25.441406 237.0625 25.382812 237.355469 C 25.324219 237.652344 25.238281 237.9375 25.125 238.214844 C 25.007812 238.492188 24.867188 238.753906 24.699219 239.003906 C 24.535156 239.253906 24.34375 239.484375 24.132812 239.699219 C 23.921875 239.910156 23.6875 240.097656 23.441406 240.265625 C 23.191406 240.433594 22.925781 240.574219 22.648438 240.6875 C 22.371094 240.804688 22.085938 240.890625 21.792969 240.949219 C 21.496094 241.007812 21.199219 241.035156 20.898438 241.035156 C 20.601562 241.035156 20.304688 241.007812 20.007812 240.949219 C 19.714844 240.890625 19.429688 240.804688 19.152344 240.6875 C 18.875 240.574219 18.609375 240.433594 18.359375 240.265625 C 18.109375 240.097656 17.878906 239.910156 17.667969 239.699219 C 17.457031 239.484375 17.265625 239.253906 17.101562 239.003906 C 16.933594 238.753906 16.792969 238.492188 16.675781 238.214844 C 16.5625 237.9375 16.476562 237.652344 16.417969 237.355469 C 16.359375 237.0625 16.328125 236.765625 16.328125 236.464844 C 16.328125 236.164062 16.359375 235.867188 16.417969 235.574219 C 16.476562 235.277344 16.5625 234.992188 16.675781 234.714844 C 16.792969 234.4375 16.933594 234.175781 17.101562 233.925781 C 17.265625 233.675781 17.457031 233.445312 17.667969 233.234375 C 17.878906 233.019531 18.109375 232.832031 18.359375 232.664062 C 18.609375 232.496094 18.875 232.355469 19.152344 232.242188 C 19.429688 232.128906 19.714844 232.039062 20.007812 231.980469 C 20.304688 231.921875 20.601562 231.894531 20.898438 231.894531 C 21.199219 231.894531 21.496094 231.921875 21.792969 231.980469 C 22.085938 232.039062 22.371094 232.128906 22.648438 232.242188 C 22.925781 232.355469 23.191406 232.496094 23.441406 232.664062 C 23.6875 232.832031 23.921875 233.019531 24.132812 233.234375 C 24.34375 233.445312 24.535156 233.675781 24.699219 233.925781 C 24.867188 234.175781 25.007812 234.4375 25.125 234.714844 C 25.238281 234.992188 25.324219 235.277344 25.382812 235.574219 C 25.441406 235.867188 25.472656 236.164062 25.472656 236.464844 Z M 25.472656 236.464844 " fill-opacity="1" fill-rule="nonzero"/><g fill="#ffffff" fill-opacity="1"><g transform="translate(51.114579, 226.123057)"><g><path d="M 32.5625 16.765625 L 10.90625 25.890625 L 9.78125 23.203125 L 29.421875 14.921875 L 6.703125 15.890625 L 5.171875 12.25 L 21.71875 -3.359375 L 2.078125 4.921875 L 0.9375 2.21875 L 22.59375 -6.90625 L 24.578125 -2.1875 L 8.390625 13.0625 L 30.609375 12.109375 Z M 32.5625 16.765625 "/></g></g></g><g fill="#ffffff" fill-opacity="1"><g transform="translate(67.439285, 260.729172)"><g><path d="M 26.0625 0 L 23.140625 -4.046875 L 7.90625 6.921875 L 10.828125 10.96875 L 8.90625 12.359375 L 1.390625 1.921875 L 3.3125 0.53125 L 6.21875 4.5625 L 21.453125 -6.40625 L 18.546875 -10.4375 L 20.46875 -11.8125 L 27.984375 -1.375 Z M 26.0625 0 "/></g></g></g><g fill="#ffffff" fill-opacity="1"><g transform="translate(82.542891, 280.639224)"><g><path d="M 5.5 2 L 14.359375 10.546875 L 12.703125 12.25 L 1.734375 1.671875 L 18.046875 -15.25 L 20.15625 -13.21875 Z M 5.5 2 "/></g></g></g><g fill="#ffffff" fill-opacity="1"><g transform="translate(101.635198, 298.335927)"><g><path d="M 17.421875 -4.96875 L 18.578125 11.609375 L 18.5 11.734375 L 15.484375 9.828125 L 14.65625 -4.28125 L 7.921875 -2.515625 L 4.515625 2.859375 L 2.03125 1.28125 L 14.609375 -18.5625 L 17.09375 -16.984375 L 9.953125 -5.703125 L 27.359375 -10.46875 L 30.609375 -8.40625 Z M 17.421875 -4.96875 "/></g></g></g><g fill="#ffffff" fill-opacity="1"><g transform="translate(128.248529, 313.769701)"><g/></g></g><g fill="#ffffff" fill-opacity="1"><g transform="translate(142.205988, 319.702905)"><g><path d="M 26.03125 -17.703125 L 25.46875 -15.40625 L 17.3125 -17.453125 L 12.171875 3.078125 L 9.359375 2.375 L 14.5 -18.15625 L 6.28125 -20.21875 L 6.84375 -22.515625 Z M 26.03125 -17.703125 "/></g></g></g><g fill="#ffffff" fill-opacity="1"><g transform="translate(171.341614, 326.160137)"><g><path d="M 5.421875 -2.1875 L 19.96875 -1.6875 L 19.890625 0.6875 L 2.40625 0.078125 L 3.21875 -23.40625 L 20.59375 -22.796875 L 20.515625 -20.4375 L 6.078125 -20.9375 L 5.796875 -13.046875 L 19.171875 -12.59375 L 19.09375 -10.28125 L 5.71875 -10.734375 Z M 5.421875 -2.1875 "/></g></g></g><g fill="#ffffff" fill-opacity="1"><g transform="translate(201.253257, 326.476776)"><g><path d="M 20.140625 -3.78125 L 16.78125 -9.265625 L 5.3125 -7.109375 L 4.15625 -0.78125 L 1.296875 -0.25 L 5.703125 -24.984375 L 9.96875 -25.78125 L 23.0625 -4.328125 Z M 5.75 -9.609375 L 15.46875 -11.4375 L 8.203125 -23.296875 Z M 5.75 -9.609375 "/></g></g></g><g fill="#ffffff" fill-opacity="1"><g transform="translate(232.367397, 319.30311)"><g/></g></g><g fill="#ffffff" fill-opacity="1"><g transform="translate(246.652708, 314.079022)"><g><path d="M -2.359375 -7.921875 L 0.125 -9.328125 C 0.738281 -8.285156 1.484375 -7.46875 2.359375 -6.875 C 3.242188 -6.28125 4.285156 -6.007812 5.484375 -6.0625 C 6.679688 -6.113281 8.070312 -6.585938 9.65625 -7.484375 C 11.070312 -8.273438 12.09375 -9.050781 12.71875 -9.8125 C 13.34375 -10.582031 13.65625 -11.34375 13.65625 -12.09375 C 13.664062 -12.851562 13.445312 -13.625 13 -14.40625 C 12.394531 -15.488281 11.628906 -16.148438 10.703125 -16.390625 C 9.785156 -16.628906 8.625 -16.488281 7.21875 -15.96875 L 1.96875 -13.96875 C 0.03125 -13.238281 -1.609375 -13.070312 -2.953125 -13.46875 C -4.296875 -13.875 -5.398438 -14.847656 -6.265625 -16.390625 C -6.890625 -17.503906 -7.171875 -18.664062 -7.109375 -19.875 C -7.046875 -21.09375 -6.585938 -22.285156 -5.734375 -23.453125 C -4.878906 -24.617188 -3.570312 -25.703125 -1.8125 -26.703125 C 0.875 -28.210938 3.238281 -28.734375 5.28125 -28.265625 C 7.320312 -27.796875 8.972656 -26.617188 10.234375 -24.734375 L 7.765625 -23.34375 C 6.828125 -24.65625 5.660156 -25.476562 4.265625 -25.8125 C 2.878906 -26.144531 1.222656 -25.765625 -0.703125 -24.671875 C -2.515625 -23.660156 -3.628906 -22.570312 -4.046875 -21.40625 C -4.472656 -20.238281 -4.359375 -19.078125 -3.703125 -17.921875 C -3.253906 -17.117188 -2.640625 -16.550781 -1.859375 -16.21875 C -1.078125 -15.894531 -0.0546875 -15.96875 1.203125 -16.4375 L 6.734375 -18.546875 C 8.722656 -19.273438 10.429688 -19.476562 11.859375 -19.15625 C 13.296875 -18.832031 14.476562 -17.847656 15.40625 -16.203125 C 16.507812 -14.265625 16.726562 -12.394531 16.0625 -10.59375 C 15.394531 -8.789062 13.640625 -7.085938 10.796875 -5.484375 C 8.578125 -4.222656 6.617188 -3.570312 4.921875 -3.53125 C 3.234375 -3.488281 1.785156 -3.875 0.578125 -4.6875 C -0.617188 -5.507812 -1.597656 -6.585938 -2.359375 -7.921875 Z M -2.359375 -7.921875 "/></g></g></g><g fill="#ffffff" fill-opacity="1"><g transform="translate(273.295682, 298.103369)"><g><path d="M -1.71875 -30.171875 L 0.421875 -32.125 L 16.21875 -14.734375 L 14.078125 -12.78125 L 6.71875 -20.890625 L -3.40625 -11.703125 L 3.953125 -3.59375 L 1.78125 -1.625 L -14.015625 -19.015625 L -11.84375 -20.984375 L -5 -13.453125 L 5.125 -22.640625 Z M -1.71875 -30.171875 "/></g></g></g><g fill="#ffffff" fill-opacity="1"><g transform="translate(296.696607, 275.803951)"><g><path d="M 8.125 -10.96875 C 6.613281 -8.726562 4.929688 -7.1875 3.078125 -6.34375 C 1.222656 -5.507812 -0.707031 -5.28125 -2.71875 -5.65625 C -4.726562 -6.03125 -6.710938 -6.878906 -8.671875 -8.203125 C -10.597656 -9.503906 -12.109375 -11.015625 -13.203125 -12.734375 C -14.296875 -14.460938 -14.804688 -16.347656 -14.734375 -18.390625 C -14.660156 -20.441406 -13.867188 -22.585938 -12.359375 -24.828125 C -10.816406 -27.097656 -9.113281 -28.632812 -7.25 -29.4375 C -5.382812 -30.25 -3.445312 -30.472656 -1.4375 -30.109375 C 0.570312 -29.742188 2.539062 -28.910156 4.46875 -27.609375 C 6.425781 -26.285156 7.941406 -24.757812 9.015625 -23.03125 C 10.085938 -21.3125 10.59375 -19.4375 10.53125 -17.40625 C 10.46875 -15.382812 9.664062 -13.238281 8.125 -10.96875 Z M -6.9375 -10.75 C -4.207031 -8.90625 -1.769531 -8.085938 0.375 -8.296875 C 2.519531 -8.503906 4.429688 -9.847656 6.109375 -12.328125 C 7.804688 -14.828125 8.351562 -17.113281 7.75 -19.1875 C 7.144531 -21.257812 5.476562 -23.21875 2.75 -25.0625 C 0.0195312 -26.914062 -2.414062 -27.734375 -4.5625 -27.515625 C -6.707031 -27.304688 -8.628906 -25.953125 -10.328125 -23.453125 C -12.003906 -20.972656 -12.539062 -18.695312 -11.9375 -16.625 C -11.332031 -14.5625 -9.664062 -12.601562 -6.9375 -10.75 Z M -6.9375 -10.75 "/></g></g></g><g fill="#ffffff" fill-opacity="1"><g transform="translate(315.373078, 246.021734)"><g><path d="M -17.21875 -20.71875 C -16.613281 -22.300781 -15.835938 -23.46875 -14.890625 -24.21875 C -13.953125 -24.96875 -12.914062 -25.378906 -11.78125 -25.453125 C -10.644531 -25.535156 -9.476562 -25.347656 -8.28125 -24.890625 C -7.125 -24.441406 -6.140625 -23.804688 -5.328125 -22.984375 C -4.515625 -22.160156 -4.003906 -21.140625 -3.796875 -19.921875 C -3.597656 -18.710938 -3.8125 -17.296875 -4.4375 -15.671875 L -7.1875 -8.5 L 1.921875 -5.015625 L 0.859375 -2.25 L -21.078125 -10.65625 Z M -6.875 -15.953125 C -6.25 -17.585938 -6.195312 -18.890625 -6.71875 -19.859375 C -7.238281 -20.828125 -8.125 -21.550781 -9.375 -22.03125 C -10.6875 -22.53125 -11.835938 -22.59375 -12.828125 -22.21875 C -13.828125 -21.84375 -14.632812 -20.863281 -15.25 -19.28125 L -17.8125 -12.578125 L -9.40625 -9.359375 Z M -6.875 -15.953125 "/></g></g></g><g clip-path="url(#0fb0fafffd)"><g clip-path="url(#d3e5876dbc)"><path fill="#ffffff" d="M 298.300781 173.464844 L 326.367188 173.464844 L 326.367188 201.535156 L 298.300781 201.535156 Z M 298.300781 173.464844 " fill-opacity="1" fill-rule="nonzero"/></g></g></svg>